{"title":"The Sugarland Express (1974)DVD.Rip.XviD-AT","uid":6814772,"size":733212514,"categoryP":"video","categoryS":"movies","magnet":"?xt=urn:btih:70f5ee5040226fd74c9836273f6dc08e4c922240&amp;dn=The+Sugarland+Express+%281974%29DVD.Rip.XviD-AT&amp;tr=udp%3A%2F%2Ftracker.openbittorrent.com%3A80&amp;tr=udp%3A%2F%2Fopen.demonii.com%3A1337&amp;tr=udp%3A%2F%2Ftracker.coppersurfer.tk%3A6969&amp;tr=udp%3A%2F%2Fexodus.desync.com%3A6969","seeders":1,"leechers":0,"uploader":"sceneline","files":4,"time":1321169161,"description":"- &lt;a href=&quot;\nhttp://www.Speed.Cd&quot; rel=&quot;nofollow&quot; target=&quot;_NEW&quot;&gt;\nhttp://www.Speed.Cd&lt;/a&gt;      fast  and The Hottest Private Tracker on the net\n\n   signup is open now\n\nPlease Seed back to make the speed Faster!!!\n\n------------------nfo--------------------------\n-Video\nID                               : 0\nFormat                           : MPEG-4 Visual\nFormat profile                   : Advanced Simple@L5\nFormat settings, BVOP            : Yes\nFormat settings, QPel            : No\nFormat settings, GMC             : No warppoints\nFormat settings, Matrix          : Default (H.263)\nMuxing mode                      : Packed bitstream\nCodec ID                         : XVID\nCodec ID/Hint                    : XviD\nDuration                         : 1h 49mn\nBit rate                         : 752 Kbps\nWidth                            : 636 pixels\nHeight                           : 356 pixels\nDisplay aspect ratio             : 16:9\nFrame rate                       : 25.000 fps\nColor space                      : YUV\nChroma subsampling               : 4:2:0\nBit depth                        : 8 bits\nScan type                        : Progressive\nBits/(Pixel*Frame)               : 0.133\nStream size                      : 591 MiB (85%)\nWriting library                  : XviD 62\n\nAudio\nID                               : 1\nFormat                           : MPEG Audio\nFormat version                   : Version 1\nFormat profile                   : Layer 3\nCodec ID                         : 55\nCodec ID/Hint                    : MP3\nDuration                         : 1h 49mn\nBit rate mode                    : Constant\nBit rate                         : 128 Kbps\nChannel(s)                       : 2 channels\nSampling rate                    : 48.0 KHz\nStream size                      : 101 MiB (14%)\nAlignment                        : Split accross interleaves\nInterleave, duration             : 40 ms (1.00 video frame)\nInterleave, preload duration     : 500 ms\nWriting library                  : LAME3.98.4","torrent":{"xt":"urn:btih:70f5ee5040226fd74c9836273f6dc08e4c922240","amp;dn":"The+Sugarland+Express+%281974%29DVD.Rip.XviD-AT","amp;tr":["udp%3A%2F%2Ftracker.openbittorrent.com%3A80","udp%3A%2F%2Fopen.demonii.com%3A1337","udp%3A%2F%2Ftracker.coppersurfer.tk%3A6969","udp%3A%2F%2Fexodus.desync.com%3A6969"],"infoHash":"70f5ee5040226fd74c9836273f6dc08e4c922240","infoHashBuffer":{"type":"Buffer","data":[112,245,238,80,64,34,111,215,76,152,54,39,63,109,192,142,76,146,34,64]},"announce":[],"urlList":[]}}